<svg xmlns="http://www.w3.org/2000/svg" xmlns:xlink="http://www.w3.org/1999/xlink" version="1.1" width="221" height="221" enable-background="new 0 0 1400 980" xml:space="preserve"><rect id="backgroundrect" width="100%" height="100%" x="0" y="0" fill="none" stroke="none" class=""/>

<g class="currentLayer"><title>Layer 1</title><g id="XMLID_254_" class="">
	<path id="XMLID_277_" fill="#57297A" d="M174.49996337890627,3.6000183105468864 v214.1 h43.3 V3.6000183105468864 H174.49996337890627 zM209.29996337890623,209.20001831054685 h-26.4 v-14.3 h26.4 V209.20001831054685 zM209.29996337890623,186.4000183105469 h-26.4 v-14.3 h26.4 V186.4000183105469 zM209.29996337890623,163.6000183105469 h-26.4 v-14.3 h26.4 V163.6000183105469 zM209.29996337890623,140.80001831054688 h-26.4 v-14.3 h26.4 V140.80001831054688 zM209.29996337890623,117.9000183105469 h-26.4 v-14.3 h26.4 V117.9000183105469 zM209.29996337890623,95.10001831054689 h-26.4 V80.80001831054688 h26.4 V95.10001831054689 zM209.29996337890623,72.30001831054688 h-26.4 v-14.3 h26.4 V72.30001831054688 zM209.29996337890623,49.500018310546864 h-26.4 v-14.3 h26.4 V49.500018310546864 zM209.29996337890623,26.700018310546852 h-26.4 v-14.3 h26.4 V26.700018310546852 z"/>
	<path id="XMLID_266_" fill="#57297A" d="M3.5999633789062955,3.6000183105468864 v214.1 h43.3 V3.6000183105468864 H3.5999633789062955 zM38.49996337890627,209.20001831054685 h-26.4 v-14.3 h26.4 V209.20001831054685 zM38.49996337890627,186.4000183105469 h-26.4 v-14.3 h26.4 V186.4000183105469 zM38.49996337890627,163.6000183105469 h-26.4 v-14.3 h26.4 V163.6000183105469 zM38.49996337890627,140.80001831054688 h-26.4 v-14.3 h26.4 V140.80001831054688 zM38.49996337890627,117.9000183105469 h-26.4 v-14.3 h26.4 V117.9000183105469 zM38.49996337890627,95.10001831054689 h-26.4 V80.80001831054688 h26.4 V95.10001831054689 zM38.49996337890627,72.30001831054688 h-26.4 v-14.3 h26.4 V72.30001831054688 zM38.49996337890627,49.500018310546864 h-26.4 v-14.3 h26.4 V49.500018310546864 zM38.49996337890627,26.700018310546852 h-26.4 v-14.3 h26.4 V26.700018310546852 z"/>
	<g id="XMLID_265_">
		<path id="XMLID_528_" fill="#57297A" d="M46.89996337890625,221.30001831054688 h-43.3 c-2,0 -3.6,-1.6 -3.6,-3.6 V3.6000183105468864 c0,-2 1.6,-3.6 3.6,-3.6 h43.3 c2,0 3.6,1.6 3.6,3.6 v214.1 C50.49996337890627,219.70001831054685 48.89996337890625,221.30001831054688 46.89996337890625,221.30001831054688 zM7.1999633789062045,214.20001831054685 H43.39996337890625 v-207 h-36.2 V214.20001831054685 z"/>
	</g>
	<g id="XMLID_264_">
		<path id="XMLID_525_" fill="#57297A" d="M217.79996337890623,221.30001831054688 h-43.3 c-2,0 -3.6,-1.6 -3.6,-3.6 V3.6000183105468864 c0,-2 1.6,-3.6 3.6,-3.6 h43.3 c2,0 3.6,1.6 3.6,3.6 v214.1 C221.29996337890623,219.70001831054685 219.6999633789062,221.30001831054688 217.79996337890623,221.30001831054688 zM177.99996337890627,214.20001831054685 h36.2 v-207 h-36.2 V214.20001831054685 z"/>
	</g>
	<rect id="XMLID_263_" x="46.89996337890625" y="3.6000213623046875" fill="#FDF499" width="127.5" height="79.9000015258789"/>
	<rect id="XMLID_262_" x="46.89996337890625" y="83.50003051757812" fill="#FDF499" width="127.5" height="94.19999694824219"/>
	<rect id="XMLID_261_" x="46.89996337890625" y="177.80001831054688" fill="#FDF499" width="127.5" height="40"/>
	<polygon id="XMLID_260_" fill="#EADD7C" points="174.49993896484375,3.6000213623046875 46.89996337890625,83.50003051757812 174.49993896484375,83.50003051757812 "/>
	<polygon id="XMLID_259_" fill="#EADD7C" points="174.49993896484375,83.50003051757812 46.89996337890625,177.80001831054688 174.49993896484375,177.80001831054688 "/>
	<g id="XMLID_258_">
		<path id="XMLID_522_" fill="#57297A" d="M174.49996337890627,87.10001831054689 H46.89996337890625 c-2,0 -3.6,-1.6 -3.6,-3.6 v-79.9 c0,-2 1.6,-3.6 3.6,-3.6 H174.39996337890625 c2,0 3.6,1.6 3.6,3.6 v79.9 C177.99996337890627,85.50001831054686 176.39996337890625,87.10001831054689 174.49996337890627,87.10001831054689 zM50.49996337890627,80.00001831054686 h120.4 v-72.8 H50.49996337890627 V80.00001831054686 z"/>
	</g>
	<polygon id="XMLID_257_" fill="#EADD7C" points="110.699951171875,217.70001220703125 174.49993896484375,217.70001220703125 174.49993896484375,177.80001831054688 "/>
	<g id="XMLID_256_">
		<path id="XMLID_519_" fill="#57297A" d="M174.49996337890627,181.30001831054688 H46.89996337890625 c-2,0 -3.6,-1.6 -3.6,-3.6 v-94.2 c0,-2 1.6,-3.6 3.6,-3.6 H174.39996337890625 c2,0 3.6,1.6 3.6,3.6 V177.80001831054688 C177.99996337890627,179.70001831054685 176.39996337890625,181.30001831054688 174.49996337890627,181.30001831054688 zM50.49996337890627,174.20001831054685 h120.4 v-87.1 H50.49996337890627 V174.20001831054685 z"/>
	</g>
	<g id="XMLID_255_">
		<path id="XMLID_516_" fill="#57297A" d="M174.49996337890627,221.30001831054688 H46.89996337890625 c-2,0 -3.6,-1.6 -3.6,-3.6 v-40 c0,-2 1.6,-3.6 3.6,-3.6 H174.39996337890625 c2,0 3.6,1.6 3.6,3.6 v40 C177.99996337890627,219.70001831054685 176.39996337890625,221.30001831054688 174.49996337890627,221.30001831054688 zM50.49996337890627,214.20001831054685 h120.4 v-32.8 H50.49996337890627 V214.20001831054685 z"/>
	</g>
</g></g></svg>