<svg xmlns="http://www.w3.org/2000/svg" xmlns:xlink="http://www.w3.org/1999/xlink" version="1.1" width="400" height="400" style="display: block;"><rect id="backgroundrect" width="100%" height="100%" x="0" y="0" fill="none" stroke="none"/><g class="currentLayer"><title>Layer 1</title><g id="svgg" class=""><path id="path0" d="M2.400 200.000 L 2.400 397.600 200.000 397.600 L 397.600 397.600 397.600 200.000 L 397.600 2.400 200.000 2.400 L 2.400 2.400 2.400 200.000 M237.942 104.119 C 240.387 105.233,242.629 110.609,242.260 114.473 C 241.914 118.105,236.588 118.740,236.155 115.200 C 235.623 110.848,234.282 108.000,232.766 108.000 C 230.016 108.000,229.600 110.597,229.600 127.787 C 229.600 145.763,229.742 146.400,233.760 146.400 L 236.000 146.400 236.000 140.092 C 236.000 134.206,235.863 133.694,233.951 132.441 C 230.040 129.879,231.560 127.640,237.400 127.362 L 242.400 127.124 242.400 138.403 L 242.400 149.682 239.626 150.841 C 234.800 152.857,229.240 152.371,226.213 149.667 L 223.600 147.334 223.345 129.467 C 223.062 109.655,223.551 106.330,227.029 104.442 C 229.649 103.020,235.171 102.857,237.942 104.119 M139.012 127.400 L 138.800 150.800 135.800 151.048 L 132.800 151.297 132.800 127.648 L 132.800 104.000 136.012 104.000 L 139.224 104.000 139.012 127.400 M161.902 106.200 C 162.138 107.410,162.552 111.280,162.823 114.800 C 163.094 118.320,163.623 123.180,163.999 125.600 C 164.375 128.020,164.942 132.520,165.258 135.600 C 166.109 143.891,167.296 137.356,170.164 108.600 L 170.622 104.000 175.311 104.000 L 180.000 104.000 180.000 127.651 L 180.000 151.301 177.400 151.051 L 174.800 150.800 174.400 131.200 L 174.000 111.600 172.099 128.800 C 169.559 151.775,169.848 150.745,165.851 151.041 L 162.596 151.282 161.725 145.041 C 161.246 141.609,160.469 135.020,159.998 130.400 C 158.458 115.292,158.012 115.888,157.600 133.600 L 157.200 150.800 154.600 151.051 L 152.000 151.301 152.000 127.651 L 152.000 104.000 156.736 104.000 C 161.266 104.000,161.492 104.096,161.902 106.200 M206.739 109.000 C 207.038 111.750,207.792 117.060,208.413 120.800 C 209.576 127.797,211.536 140.689,212.459 147.400 L 212.982 151.200 209.802 151.200 L 206.622 151.200 205.911 145.400 L 205.200 139.600 201.497 139.360 C 197.340 139.091,197.381 139.029,196.342 147.000 C 195.805 151.111,195.738 151.200,193.144 151.200 C 189.605 151.200,189.610 151.226,191.224 141.600 C 191.999 136.980,193.587 127.260,194.754 120.000 C 197.556 102.561,196.908 104.000,201.951 104.000 L 206.193 104.000 206.739 109.000 M269.600 106.400 C 269.600 108.747,269.511 108.800,265.600 108.800 L 261.600 108.800 261.600 116.400 L 261.600 124.000 265.200 124.000 C 268.667 124.000,268.800 124.089,268.800 126.400 C 268.800 128.711,268.667 128.800,265.200 128.800 L 261.600 128.800 261.600 137.156 L 261.600 145.512 265.400 145.756 C 269.035 145.989,269.200 146.104,269.200 148.400 L 269.200 150.800 262.200 151.031 L 255.200 151.262 255.200 127.631 L 255.200 104.000 262.400 104.000 L 269.600 104.000 269.600 106.400 M200.869 114.800 C 200.809 116.560,200.442 119.440,200.052 121.200 C 199.663 122.960,199.096 126.650,198.793 129.400 L 198.243 134.400 201.225 134.400 L 204.206 134.400 203.657 127.381 C 203.355 123.520,202.629 118.390,202.043 115.981 L 200.977 111.600 200.869 114.800 M210.555 177.882 C 213.510 179.728,215.257 213.409,212.768 220.548 C 210.449 227.199,197.950 226.878,195.952 220.116 C 195.410 218.281,195.185 210.313,195.346 198.614 L 195.600 180.028 197.584 178.614 C 201.320 175.951,206.953 175.633,210.555 177.882 M170.441 177.400 C 170.464 177.730,171.870 186.100,173.565 196.000 L 176.648 214.000 176.724 195.349 L 176.800 176.699 179.400 176.949 L 182.000 177.200 182.212 200.600 L 182.424 224.000 178.012 224.000 C 175.585 224.000,173.600 223.886,173.600 223.747 C 173.600 223.509,170.544 204.303,168.675 192.800 C 168.211 189.940,167.655 187.420,167.441 187.200 C 167.226 186.980,167.174 195.170,167.325 205.400 L 167.600 224.001 165.000 224.000 L 162.400 224.000 162.400 200.400 L 162.400 176.800 166.400 176.800 C 168.600 176.800,170.419 177.070,170.441 177.400 M241.600 179.600 C 241.600 182.267,241.467 182.400,238.800 182.400 L 236.000 182.400 236.000 203.200 L 236.000 224.000 232.800 224.000 L 229.600 224.000 229.600 203.200 L 229.600 182.400 226.800 182.400 C 224.133 182.400,224.000 182.267,224.000 179.600 L 224.000 176.800 232.800 176.800 L 241.600 176.800 241.600 179.600 M201.775 183.000 C 200.398 186.354,201.125 217.467,202.615 218.958 C 203.712 220.055,204.341 220.177,205.415 219.500 C 206.821 218.614,207.996 188.229,206.811 183.400 C 206.264 181.171,202.644 180.883,201.775 183.000 M172.139 251.784 C 176.803 256.448,176.417 292.459,171.659 296.552 C 167.292 300.308,158.761 298.573,157.045 293.579 C 155.836 290.059,155.672 259.214,156.840 255.007 C 158.337 249.619,167.949 247.593,172.139 251.784 M145.451 253.000 C 145.210 255.493,145.044 255.610,141.400 255.844 L 137.600 256.088 137.600 263.244 L 137.600 270.400 141.114 270.400 C 144.858 270.400,146.077 271.638,145.164 274.513 C 144.798 275.668,143.900 276.000,141.146 276.000 L 137.600 276.000 137.600 286.800 L 137.600 297.600 134.400 297.600 L 131.200 297.600 131.200 274.000 L 131.200 250.400 138.451 250.400 L 145.701 250.400 145.451 253.000 M194.587 271.400 L 194.800 292.400 196.710 292.670 C 199.783 293.105,199.975 291.813,199.988 270.600 L 200.000 250.400 203.200 250.400 L 206.400 250.400 206.400 270.826 C 206.400 297.122,205.931 298.400,196.269 298.400 C 193.243 298.400,192.257 297.988,190.321 295.915 L 188.000 293.431 188.000 271.915 L 188.000 250.400 191.187 250.400 L 194.373 250.400 194.587 271.400 M228.340 254.200 C 232.949 287.740,234.352 291.432,234.117 269.400 L 233.914 250.400 236.557 250.400 L 239.200 250.400 239.200 274.042 L 239.200 297.684 235.025 297.442 L 230.850 297.200 228.684 284.000 C 227.493 276.740,226.268 268.534,225.962 265.764 C 224.954 256.633,224.400 261.495,224.400 279.477 L 224.400 297.200 222.000 297.200 L 219.600 297.200 219.388 273.800 L 219.176 250.400 223.497 250.400 L 227.818 250.400 228.340 254.200 M266.031 251.561 C 270.061 253.245,270.400 254.993,270.400 274.092 C 270.400 296.768,269.637 298.119,257.200 297.456 L 252.400 297.200 252.188 273.800 L 251.976 250.400 257.614 250.400 C 260.732 250.400,264.494 250.919,266.031 251.561 M163.383 255.337 C 162.347 256.373,161.899 288.964,162.886 291.535 C 163.833 294.003,167.738 293.112,168.300 290.300 C 169.262 285.490,168.840 258.926,167.768 256.807 C 166.610 254.517,164.807 253.913,163.383 255.337 M258.400 274.000 L 258.400 292.101 261.000 291.851 L 263.600 291.600 263.600 274.000 L 263.600 256.400 261.000 256.149 L 258.400 255.899 258.400 274.000 " stroke="none" fill="#ffffff" fill-rule="evenodd"/><path id="path1" d="M0.000 200.000 L 0.000 400.000 200.000 400.000 L 400.000 400.000 400.000 200.000 L 400.000 0.000 200.000 0.000 L 0.000 0.000 0.000 200.000 M397.600 200.000 L 397.600 397.600 200.000 397.600 L 2.400 397.600 2.400 200.000 L 2.400 2.400 200.000 2.400 L 397.600 2.400 397.600 200.000 M227.029 104.442 C 223.551 106.330,223.062 109.655,223.345 129.467 L 223.600 147.334 226.213 149.667 C 229.240 152.371,234.800 152.857,239.626 150.841 L 242.400 149.682 242.400 138.403 L 242.400 127.124 237.400 127.362 C 231.560 127.640,230.040 129.879,233.951 132.441 C 235.863 133.694,236.000 134.206,236.000 140.092 L 236.000 146.400 233.760 146.400 C 229.742 146.400,229.600 145.763,229.600 127.787 C 229.600 110.597,230.016 108.000,232.766 108.000 C 234.282 108.000,235.623 110.848,236.155 115.200 C 236.588 118.740,241.914 118.105,242.260 114.473 C 243.100 105.673,234.815 100.217,227.029 104.442 M132.800 127.648 L 132.800 151.297 135.800 151.048 L 138.800 150.800 139.012 127.400 L 139.224 104.000 136.012 104.000 L 132.800 104.000 132.800 127.648 M152.000 127.651 L 152.000 151.301 154.600 151.051 L 157.200 150.800 157.600 133.600 C 158.012 115.888,158.458 115.292,159.998 130.400 C 160.469 135.020,161.246 141.609,161.725 145.041 L 162.596 151.282 165.851 151.041 C 169.848 150.745,169.559 151.775,172.099 128.800 L 174.000 111.600 174.400 131.200 L 174.800 150.800 177.400 151.051 L 180.000 151.301 180.000 127.651 L 180.000 104.000 175.311 104.000 L 170.622 104.000 170.164 108.600 C 167.296 137.356,166.109 143.891,165.258 135.600 C 164.942 132.520,164.375 128.020,163.999 125.600 C 163.623 123.180,163.094 118.320,162.823 114.800 C 161.958 103.562,162.206 104.000,156.736 104.000 L 152.000 104.000 152.000 127.651 M197.291 105.400 C 197.062 106.170,195.920 112.740,194.754 120.000 C 193.587 127.260,191.999 136.980,191.224 141.600 C 189.610 151.226,189.605 151.200,193.144 151.200 C 195.738 151.200,195.805 151.111,196.342 147.000 C 197.381 139.029,197.340 139.091,201.497 139.360 L 205.200 139.600 205.911 145.400 L 206.622 151.200 209.802 151.200 L 212.982 151.200 212.459 147.400 C 211.536 140.689,209.576 127.797,208.413 120.800 C 207.792 117.060,207.038 111.750,206.739 109.000 L 206.193 104.000 201.951 104.000 C 198.602 104.000,197.620 104.295,197.291 105.400 M255.200 127.631 L 255.200 151.262 262.200 151.031 L 269.200 150.800 269.200 148.400 C 269.200 146.104,269.035 145.989,265.400 145.756 L 261.600 145.512 261.600 137.156 L 261.600 128.800 265.200 128.800 C 268.667 128.800,268.800 128.711,268.800 126.400 C 268.800 124.089,268.667 124.000,265.200 124.000 L 261.600 124.000 261.600 116.400 L 261.600 108.800 265.600 108.800 C 269.511 108.800,269.600 108.747,269.600 106.400 L 269.600 104.000 262.400 104.000 L 255.200 104.000 255.200 127.631 M203.657 127.381 L 204.206 134.400 201.225 134.400 L 198.243 134.400 198.793 129.400 C 199.096 126.650,199.663 122.960,200.052 121.200 C 200.442 119.440,200.809 116.560,200.869 114.800 L 200.977 111.600 202.043 115.981 C 202.629 118.390,203.355 123.520,203.657 127.381 M201.184 176.662 C 200.295 176.958,198.675 177.836,197.584 178.614 L 195.600 180.028 195.346 198.614 C 195.185 210.313,195.410 218.281,195.952 220.116 C 197.950 226.878,210.449 227.199,212.768 220.548 C 213.850 217.444,213.865 184.199,212.786 181.103 C 211.525 177.486,205.565 175.205,201.184 176.662 M162.400 200.400 L 162.400 224.000 165.000 224.000 L 167.600 224.001 167.325 205.400 C 167.174 195.170,167.226 186.980,167.441 187.200 C 167.655 187.420,168.211 189.940,168.675 192.800 C 170.544 204.303,173.600 223.509,173.600 223.747 C 173.600 223.886,175.585 224.000,178.012 224.000 L 182.424 224.000 182.212 200.600 L 182.000 177.200 179.400 176.949 L 176.800 176.699 176.724 195.349 L 176.648 214.000 173.565 196.000 C 171.870 186.100,170.464 177.730,170.441 177.400 C 170.419 177.070,168.600 176.800,166.400 176.800 L 162.400 176.800 162.400 200.400 M224.000 179.600 C 224.000 182.267,224.133 182.400,226.800 182.400 L 229.600 182.400 229.600 203.200 L 229.600 224.000 232.800 224.000 L 236.000 224.000 236.000 203.200 L 236.000 182.400 238.800 182.400 C 241.467 182.400,241.600 182.267,241.600 179.600 L 241.600 176.800 232.800 176.800 L 224.000 176.800 224.000 179.600 M206.811 183.400 C 207.996 188.229,206.821 218.614,205.415 219.500 C 204.341 220.177,203.712 220.055,202.615 218.958 C 201.125 217.467,200.398 186.354,201.775 183.000 C 202.644 180.883,206.264 181.171,206.811 183.400 M159.836 250.793 C 156.582 252.628,156.005 256.227,156.050 274.400 C 156.104 296.346,156.919 298.360,165.755 298.388 C 173.816 298.414,175.097 295.024,175.117 273.600 C 175.137 253.110,174.118 250.381,166.248 249.856 C 163.455 249.669,161.259 249.990,159.836 250.793 M131.200 274.000 L 131.200 297.600 134.400 297.600 L 137.600 297.600 137.600 286.800 L 137.600 276.000 141.146 276.000 C 143.900 276.000,144.798 275.668,145.164 274.513 C 146.077 271.638,144.858 270.400,141.114 270.400 L 137.600 270.400 137.600 263.244 L 137.600 256.088 141.400 255.844 C 145.044 255.610,145.210 255.493,145.451 253.000 L 145.701 250.400 138.451 250.400 L 131.200 250.400 131.200 274.000 M188.000 271.915 L 188.000 293.431 190.321 295.915 C 192.257 297.988,193.243 298.400,196.269 298.400 C 205.931 298.400,206.400 297.122,206.400 270.826 L 206.400 250.400 203.200 250.400 L 200.000 250.400 199.988 270.600 C 199.975 291.813,199.783 293.105,196.710 292.670 L 194.800 292.400 194.587 271.400 L 194.373 250.400 191.187 250.400 L 188.000 250.400 188.000 271.915 M219.388 273.800 L 219.600 297.200 222.000 297.200 L 224.400 297.200 224.400 279.477 C 224.400 261.495,224.954 256.633,225.962 265.764 C 226.268 268.534,227.493 276.740,228.684 284.000 L 230.850 297.200 235.025 297.442 L 239.200 297.684 239.200 274.042 L 239.200 250.400 236.557 250.400 L 233.914 250.400 234.117 269.400 C 234.352 291.432,232.949 287.740,228.340 254.200 L 227.818 250.400 223.497 250.400 L 219.176 250.400 219.388 273.800 M252.188 273.800 L 252.400 297.200 257.200 297.456 C 269.637 298.119,270.400 296.768,270.400 274.092 C 270.400 251.331,269.898 250.400,257.614 250.400 L 251.976 250.400 252.188 273.800 M167.768 256.807 C 168.840 258.926,169.262 285.490,168.300 290.300 C 167.738 293.112,163.833 294.003,162.886 291.535 C 161.899 288.964,162.347 256.373,163.383 255.337 C 164.807 253.913,166.610 254.517,167.768 256.807 M263.600 274.000 L 263.600 291.600 261.000 291.851 L 258.400 292.101 258.400 274.000 L 258.400 255.899 261.000 256.149 L 263.600 256.400 263.600 274.000 " stroke="none" fill="#000063" fill-rule="evenodd"/></g></g></svg>